<?xml version="1.0" encoding="UTF-8"?>
<!DOCTYPE svg PUBLIC "-//W3C//DTD SVG 1.1//EN" "http://www.w3.org/Graphics/SVG/1.1/DTD/svg11.dtd">
<svg xmlns="http://www.w3.org/2000/svg" version="1.1" width="500px" height="500px" style="shape-rendering:geometricPrecision; text-rendering:geometricPrecision; image-rendering:optimizeQuality; fill-rule:evenodd; clip-rule:evenodd" xmlns:xlink="http://www.w3.org/1999/xlink">
<g><path style="opacity:0.981" fill="#fefefe" d="M 276.5,440.5 C 276.265,439.903 275.765,439.57 275,439.5C 270.314,440.625 265.814,441.958 261.5,443.5C 252.122,445.905 242.455,447.238 232.5,447.5C 217.295,446.399 201.962,445.066 186.5,443.5C 179.289,441.528 171.955,439.528 164.5,437.5C 163.584,437.543 162.917,437.876 162.5,438.5C 158.217,437.419 156.884,434.919 158.5,431C 229.655,404.506 272.822,354.006 288,279.5C 297.867,205.727 274.367,145.227 217.5,98C 199.606,85.0912 180.272,74.9246 159.5,67.5C 158.24,65.6471 158.24,63.8138 159.5,62C 220.124,42.0284 277.79,48.3618 332.5,81C 390.756,120.305 421.423,175.472 424.5,246.5C 420.973,328.127 383.64,388.294 312.5,427C 301.016,432.91 289.016,437.41 276.5,440.5 Z"/></g>
<g><path style="opacity:0.247" fill="#e3e3e3" d="M 162.5,438.5 C 162.917,437.876 163.584,437.543 164.5,437.5C 171.955,439.528 179.289,441.528 186.5,443.5C 178.284,442.779 170.284,441.112 162.5,438.5 Z"/></g>
<g><path style="opacity:0.107" fill="#eaeaea" d="M 276.5,440.5 C 271.656,442.135 266.656,443.135 261.5,443.5C 265.814,441.958 270.314,440.625 275,439.5C 275.765,439.57 276.265,439.903 276.5,440.5 Z"/></g>
<g><path style="opacity:0.158" fill="#eaeaea" d="M 186.5,443.5 C 201.962,445.066 217.295,446.399 232.5,447.5C 220.139,447.679 207.806,447.179 195.5,446C 192.203,445.796 189.203,444.963 186.5,443.5 Z"/></g>
</svg>
